<?xml version="1.0" encoding="UTF-8" standalone="no"?>
<svg
   version="1.1"
   id="svg2"
   xml:space="preserve"
   width="666.66669"
   height="666.66669"
   viewBox="0 0 666.66669 666.66669"
   sodipodi:docname="390030-PCG0RP-708.svg"
   inkscape:version="1.1.1 (3bf5ae0d25, 2021-09-20)"
   xmlns:inkscape="http://www.inkscape.org/namespaces/inkscape"
   xmlns:sodipodi="http://sodipodi.sourceforge.net/DTD/sodipodi-0.dtd"
   xmlns:xlink="http://www.w3.org/1999/xlink"
   xmlns="http://www.w3.org/2000/svg"
   xmlns:svg="http://www.w3.org/2000/svg"
   xmlns:rdf="http://www.w3.org/1999/02/22-rdf-syntax-ns#"
   xmlns:cc="http://creativecommons.org/ns#"
   xmlns:dc="http://purl.org/dc/elements/1.1/"><metadata
     id="metadata8"><rdf:RDF><cc:Work
         rdf:about=""><dc:format>image/svg+xml</dc:format><dc:type
           rdf:resource="http://purl.org/dc/dcmitype/StillImage" /></cc:Work></rdf:RDF></metadata><defs
     id="defs6"><clipPath
       clipPathUnits="userSpaceOnUse"
       id="clipPath20"><path
         d="M 0,0 H 500 V 500 H 0 Z"
         id="path18" /></clipPath><clipPath
       clipPathUnits="userSpaceOnUse"
       id="clipPath28"><path
         d="M 40.6979,656.975 H 600.654 V 50.6929 H 40.6979 Z"
         id="path26" /></clipPath><linearGradient
       x1="0"
       y1="0"
       x2="1"
       y2="0"
       gradientUnits="userSpaceOnUse"
       gradientTransform="matrix(-105.72463,-212.11856,212.11856,-105.72463,386.18369,458.88879)"
       spreadMethod="pad"
       id="linearGradient38"><stop
         style="stop-opacity:1;stop-color:#3f0d85"
         offset="0"
         id="stop34" /><stop
         style="stop-opacity:1;stop-color:#221783"
         offset="1"
         id="stop36" /></linearGradient><clipPath
       clipPathUnits="userSpaceOnUse"
       id="clipPath60"><path
         d="M -19.2345,609.812 H 567.403 V 47.5038 H -19.2345 Z"
         id="path58" /></clipPath><linearGradient
       x1="0"
       y1="0"
       x2="1"
       y2="0"
       gradientUnits="userSpaceOnUse"
       gradientTransform="matrix(-67.8483,538.623,-538.623,-67.8483,304.872,-87.27)"
       spreadMethod="pad"
       id="linearGradient66"><stop
         style="stop-opacity:1;stop-color:#3f0d85"
         offset="0"
         id="stop62" /><stop
         style="stop-opacity:1;stop-color:#221783"
         offset="1"
         id="stop64" /></linearGradient><clipPath
       clipPathUnits="userSpaceOnUse"
       id="clipPath82"><path
         d="M 0,500 H 500 V 0 H 0 Z"
         id="path80" /></clipPath><linearGradient
       x1="0"
       y1="0"
       x2="1"
       y2="0"
       gradientUnits="userSpaceOnUse"
       gradientTransform="matrix(276,-340,-340,-276,262.12726,376.87979)"
       spreadMethod="pad"
       id="linearGradient104"
       xlink:href="#linearGradient38"><stop
         style="stop-opacity:1;stop-color:#3f0d85"
         offset="0"
         id="stop100" /><stop
         style="stop-opacity:1;stop-color:#221783"
         offset="1"
         id="stop102" /></linearGradient><linearGradient
       x1="0"
       y1="0"
       x2="1"
       y2="0"
       gradientUnits="userSpaceOnUse"
       gradientTransform="matrix(28,-175.33333,-175.33333,-28,328.30423,147.15958)"
       spreadMethod="pad"
       id="linearGradient124"><stop
         style="stop-opacity:1;stop-color:#3f0d85"
         offset="0"
         id="stop120" /><stop
         style="stop-opacity:1;stop-color:#221783"
         offset="1"
         id="stop122" /></linearGradient><clipPath
       clipPathUnits="userSpaceOnUse"
       id="clipPath134"><path
         d="m 28.5,400 c -1.933,0 -3.5,-1.567 -3.5,-3.5 v 0 -293 c 0,-1.932 1.567,-3.5 3.5,-3.5 v 0 h 443 c 1.932,0 3.5,1.568 3.5,3.5 v 0 293 c 0,1.933 -1.568,3.5 -3.5,3.5 v 0 z"
         id="path132" /></clipPath><clipPath
       clipPathUnits="userSpaceOnUse"
       id="clipPath142"><path
         d="M 208.091,568.987 H 512.004 V 177.319 H 208.091 Z"
         id="path140" /></clipPath><clipPath
       clipPathUnits="userSpaceOnUse"
       id="clipPath162"><path
         d="M 0,500 H 500 V 0 H 0 Z"
         id="path160" /></clipPath><linearGradient
       x1="0"
       y1="0"
       x2="1"
       y2="0"
       gradientUnits="userSpaceOnUse"
       gradientTransform="matrix(52.519543,-59.38348,-59.38348,-52.519543,266.32593,332.26572)"
       spreadMethod="pad"
       id="linearGradient192"><stop
         style="stop-opacity:1;stop-color:#3fea85"
         offset="0"
         id="stop188" /><stop
         style="stop-opacity:1;stop-color:#221783"
         offset="1"
         id="stop190" /></linearGradient><clipPath
       clipPathUnits="userSpaceOnUse"
       id="clipPath202"><path
         d="m 289.987,284.521 16.759,5.013 c -30.107,3.482 -8.481,49.821 -32.278,53.197 v 0 c -0.892,0.126 -1.728,0.188 -2.514,0.187 v 0 c -21.851,-0.003 -3.483,-47.411 18.033,-58.397"
         id="path200" /></clipPath><clipPath
       clipPathUnits="userSpaceOnUse"
       id="clipPath210"><path
         d="m 260.038,357.352 h 51.791 v -78.988 h -51.791 z"
         id="path208" /></clipPath><linearGradient
       x1="0"
       y1="0"
       x2="1"
       y2="0"
       gradientUnits="userSpaceOnUse"
       gradientTransform="matrix(1.0345573,-49.797077,-49.797077,-1.0345573,298.38052,319.04385)"
       spreadMethod="pad"
       id="linearGradient248"><stop
         style="stop-opacity:1;stop-color:#3fea85"
         offset="0"
         id="stop244" /><stop
         style="stop-opacity:1;stop-color:#221783"
         offset="1"
         id="stop246" /></linearGradient><clipPath
       clipPathUnits="userSpaceOnUse"
       id="clipPath258"><path
         d="m 290.318,286.551 10.066,-4.409 c -13.011,13.903 16.182,27.319 6.151,38.607 v 0 c -1.679,1.889 -3.373,2.719 -5.013,2.719 v 0 c -8.944,0 -16.323,-24.656 -11.204,-36.917"
         id="path256" /></clipPath><clipPath
       clipPathUnits="userSpaceOnUse"
       id="clipPath266"><path
         d="M 287.615,322.945 H 318.19 V 274.841 H 287.615 Z"
         id="path264" /></clipPath><clipPath
       clipPathUnits="userSpaceOnUse"
       id="clipPath294"><path
         d="M 0,500 H 500 V 0 H 0 Z"
         id="path292" /></clipPath><linearGradient
       x1="0"
       y1="0"
       x2="1"
       y2="0"
       gradientUnits="userSpaceOnUse"
       gradientTransform="matrix(0,111.9072,111.9072,0,360.04694,162.33333)"
       spreadMethod="pad"
       id="linearGradient320"><stop
         style="stop-opacity:1;stop-color:#545b9c"
         offset="0"
         id="stop316" /><stop
         style="stop-opacity:1;stop-color:#6b3383"
         offset="1"
         id="stop318" /></linearGradient><clipPath
       clipPathUnits="userSpaceOnUse"
       id="clipPath330"><path
         d="M 0,500 H 500 V 0 H 0 Z"
         id="path328" /></clipPath><clipPath
       clipPathUnits="userSpaceOnUse"
       id="clipPath342"><path
         d="m 284.265,278.75 h 151.568 v -82 H 284.265 Z"
         id="path340" /></clipPath><clipPath
       clipPathUnits="userSpaceOnUse"
       id="clipPath362"><path
         d="M 293.991,268.009 H 426.106 V 228.4 H 293.991 Z"
         id="path360" /></clipPath><clipPath
       clipPathUnits="userSpaceOnUse"
       id="clipPath378"><path
         d="m 293.991,225.616 h 99.381 v -24.324 h -99.381 z"
         id="path376" /></clipPath><clipPath
       clipPathUnits="userSpaceOnUse"
       id="clipPath394"><path
         d="m 396.625,225.616 h 29.479 v -24.324 h -29.479 z"
         id="path392" /></clipPath><clipPath
       clipPathUnits="userSpaceOnUse"
       id="clipPath426"><path
         d="m 396,158.13 h 46.25 v -1.622 H 396 Z"
         id="path424" /></clipPath><clipPath
       clipPathUnits="userSpaceOnUse"
       id="clipPath518"><path
         d="m 225.833,174.105 h 51.161 v -1.622 h -51.161 z"
         id="path516" /></clipPath><clipPath
       clipPathUnits="userSpaceOnUse"
       id="clipPath606"><path
         d="m 296.955,256.76 h 47.442 v -39.52 h -47.442 z"
         id="path604" /></clipPath><clipPath
       clipPathUnits="userSpaceOnUse"
       id="clipPath638"><path
         d="m 362.856,265.164 h 29.418 v -24.506 h -29.418 z"
         id="path636" /></clipPath><clipPath
       clipPathUnits="userSpaceOnUse"
       id="clipPath670"><path
         d="m 28.5,400 c -1.933,0 -3.5,-1.567 -3.5,-3.5 v 0 -293 c 0,-1.932 1.567,-3.5 3.5,-3.5 v 0 h 443 c 1.932,0 3.5,1.568 3.5,3.5 v 0 293 c 0,1.933 -1.568,3.5 -3.5,3.5 v 0 z"
         id="path668" /></clipPath><clipPath
       clipPathUnits="userSpaceOnUse"
       id="clipPath678"><path
         d="M 292.931,534.708 H 576.747 V 265.292 H 292.931 Z"
         id="path676" /></clipPath><linearGradient
       x1="0"
       y1="0"
       x2="1"
       y2="0"
       gradientUnits="userSpaceOnUse"
       gradientTransform="matrix(11.712148,113.8572,-113.8572,11.712148,428.70261,331.84305)"
       spreadMethod="pad"
       id="linearGradient688"><stop
         style="stop-opacity:1;stop-color:#3f0d85"
         offset="0"
         id="stop684" /><stop
         style="stop-opacity:1;stop-color:#221783"
         offset="1"
         id="stop686" /></linearGradient><clipPath
       clipPathUnits="userSpaceOnUse"
       id="clipPath734"><path
         d="M 0,500 H 500 V 0 H 0 Z"
         id="path732" /></clipPath><clipPath
       clipPathUnits="userSpaceOnUse"
       id="clipPath752"><path
         d="M 0,500 H 500 V 0 H 0 Z"
         id="path750" /></clipPath><clipPath
       clipPathUnits="userSpaceOnUse"
       id="clipPath772"><path
         d="M 0,500 H 500 V 0 H 0 Z"
         id="path770" /></clipPath><clipPath
       clipPathUnits="userSpaceOnUse"
       id="clipPath784"><path
         d="M 0,500 H 500 V 0 H 0 Z"
         id="path782" /></clipPath></defs><sodipodi:namedview
     pagecolor="#ffffff"
     bordercolor="#666666"
     borderopacity="1"
     objecttolerance="10"
     gridtolerance="10"
     guidetolerance="10"
     inkscape:pageopacity="0"
     inkscape:pageshadow="2"
     inkscape:window-width="1920"
     inkscape:window-height="1001"
     id="namedview4"
     inkscape:pagecheckerboard="0"
     showgrid="false"
     inkscape:zoom="1.218"
     inkscape:cx="270.11495"
     inkscape:cy="316.50247"
     inkscape:window-x="-9"
     inkscape:window-y="-9"
     inkscape:window-maximized="1"
     inkscape:current-layer="g10" /><g
     id="g10"
     inkscape:groupmode="layer"
     inkscape:label="390030-PCG0RP-708"
     transform="matrix(1.3333333,0,0,-1.3333333,0,666.66667)"><g
       id="g8046"><g
         id="g76"
         transform="matrix(1.133802,0,0,1,-77.16984,0)"><g
           id="g78"
           clip-path="url(#clipPath82)"><g
             id="g84"
             transform="translate(471.5,100)"><path
               d="m 0,0 h -443 c -1.933,0 -3.5,1.567 -3.5,3.5 v 293 c 0,1.933 1.567,3.5 3.5,3.5 H 0 c 1.933,0 3.5,-1.567 3.5,-3.5 V 3.5 C 3.5,1.567 1.933,0 0,0"
               style="fill:#ffffff;fill-opacity:1;fill-rule:nonzero;stroke:none"
               id="path86" /></g></g></g><g
         id="g88"
         style="fill:#002957"
         transform="matrix(0.94861428,0,0,1.0001423,21.027639,-0.03556842)"><g
           id="g90"
           style="fill:#002957"><g
             id="g96"
             style="fill:#002957"><g
               id="g98"
               style="fill:#002957"><path
                 d="m 180.18,400 c -11.174,-22.38 -12.716,-52.935 -3.65,-76.98 v 0 c 20.938,-55.544 94.134,-42.846 106.694,-94.703 v 0 C 295.001,179.69 258.141,141.961 255.788,100 v 0 H 471.5 c 1.932,0 3.5,1.568 3.5,3.5 v 0 293 c 0,1.933 -1.568,3.5 -3.5,3.5 v 0 z"
                 style="fill:#002957;fill-opacity:1;stroke:#3f3f3f;stroke-opacity:1"
                 id="path106" /></g></g></g></g><g
         id="g108"
         style="opacity:0.557823;fill:#003168;fill-opacity:1"
         transform="matrix(0.95083193,0,0,1,19.952358,0)"><g
           id="g110"
           style="fill:#003168;fill-opacity:1"><g
             id="g116"
             style="fill:#003168;fill-opacity:1"><g
               id="g118"
               style="fill:#003168;fill-opacity:1"><path
                 d="M 406.604,244.213 C 355.599,213.848 380.95,144.018 332.104,122.549 v 0 c -24.888,-10.937 -49.126,-7.177 -72.766,-2.27 v 0 c -1.862,-6.691 -3.166,-13.428 -3.551,-20.279 v 0 H 471.5 c 1.932,0 3.5,1.568 3.5,3.5 v 0 152.553 c -5.63,1.054 -11.496,1.572 -17.439,1.572 v 0 c -17.768,-10e-4 -36.209,-4.632 -50.957,-13.412"
                 style="fill:#003168;fill-opacity:1;stroke:none"
                 id="path126" /></g></g></g></g><g
         id="g664"
         style="opacity:0.527211;fill:#00346d;fill-opacity:1"
         transform="matrix(1.0334407,0,0,1,-19.286809,0)"><g
           id="g666"
           clip-path="url(#clipPath670)"
           style="fill:#00346d;fill-opacity:1"><g
             id="g672"
             style="fill:#00346d;fill-opacity:1"><g
               id="g674"
               style="fill:#00346d;fill-opacity:1" /><g
               id="g702"
               style="fill:#00346d;fill-opacity:1"><g
                 clip-path="url(#clipPath678)"
                 id="g700"
                 style="fill:#00346d;fill-opacity:1"><g
                   id="g698"
                   style="fill:#00346d;fill-opacity:1"><g
                     id="g696"
                     style="fill:#00346d;fill-opacity:1"><g
                       id="g694"
                       style="fill:#00346d;fill-opacity:1"><g
                         id="g692"
                         style="fill:#00346d;fill-opacity:1"><path
                           d="m 308.229,469.308 c -4.063,-6.868 -19.717,-33.33 -14.092,-67.317 1.197,-7.228 6.822,-41.216 32.35,-55.885 33.779,-19.409 66.315,15.739 103.775,1.714 32.212,-12.06 18.408,-57.917 52.329,-75.625 17.708,-9.245 42.669,-9.353 58.274,0.578 48.705,30.995 57.296,192.241 -34.61,245.006 -66.901,38.408 -165.301,6.852 -198.026,-48.471"
                           style="fill:#00346d;fill-opacity:1;stroke:none"
                           id="path690" /></g></g></g></g></g></g></g></g></g></g></g></svg>
