<?xml version="1.0" encoding="UTF-8" standalone="no"?>
<!-- Generator: Adobe Illustrator 22.1.0, SVG Export Plug-In . SVG Version: 6.00 Build 0)  -->

<svg
   version="1.1"
   id="Layer_1"
   x="0px"
   y="0px"
   viewBox="0 0 3000 2222"
   style="enable-background:new 0 0 3000 2222;"
   xml:space="preserve"
   sodipodi:docname="background-login-2.svg"
   inkscape:version="1.1.1 (3bf5ae0d25, 2021-09-20)"
   xmlns:inkscape="http://www.inkscape.org/namespaces/inkscape"
   xmlns:sodipodi="http://sodipodi.sourceforge.net/DTD/sodipodi-0.dtd"
   xmlns="http://www.w3.org/2000/svg"
   xmlns:svg="http://www.w3.org/2000/svg"><defs
   id="defs19" /><sodipodi:namedview
   id="namedview17"
   pagecolor="#ffffff"
   bordercolor="#666666"
   borderopacity="1.0"
   inkscape:pageshadow="2"
   inkscape:pageopacity="0.0"
   inkscape:pagecheckerboard="0"
   showgrid="false"
   inkscape:zoom="0.36543654"
   inkscape:cx="1347.7032"
   inkscape:cy="1112.3682"
   inkscape:window-width="1920"
   inkscape:window-height="1001"
   inkscape:window-x="-9"
   inkscape:window-y="-9"
   inkscape:window-maximized="1"
   inkscape:current-layer="g14" />
<style
   type="text/css"
   id="style2">
	.st0{fill:#2C3C9B;}
	.st1{fill:#DFE4ED;}
	.st2{fill:#F73C74;}
</style>
<g
   id="g14">
	<g
   id="g6"
   style="fill:#002957">
		<rect
   x="0.5"
   y="0.5"
   class="st0"
   width="2999"
   height="2221"
   id="rect4"
   style="fill:#002957" />
	</g>
	<g
   id="g10"
   style="fill:#000000">
		<path
   class="st1"
   d="m 1858.1,0.5 c 0,0 -155.3,319.7 157.7,726.1 227.9,295.8 805,459.7 983.2,671 V 1656 c -2,2.6 -4.1,5.2 -6.3,7.8 -308.2,373.4 0,557.7 0,557.7 H 0.5 V 0.5 Z"
   id="path8"
   style="fill:#000000" />
	</g>
	<path
   class="st2"
   d="m 239.7,1344 c -38,25.9 -77.1,51.4 -107.8,92.4 -30.8,41 -52.3,101.3 -44.9,160.5 10.5,83.8 70.5,131.6 112.2,192.4 73.7,107.5 92.5,283.9 44.5,417.8 -1.8,4.9 -3.6,9.7 -5.5,14.5 H 0.5 v -1738 c 143.1,81.5 295.7,134.1 425.5,252.1 51.4,46.8 102.5,113.8 105.7,200.7 2.3,61.8 -20.7,120 -48.5,167.5 -63.7,109 -153.8,178.9 -243.5,240.1 z"
   id="path12" />
</g>
</svg>
