<?xml version="1.0" encoding="UTF-8" standalone="no"?>
<svg
   version="1.1"
   id="svg2"
   xml:space="preserve"
   width="365.17267"
   height="259.47534"
   viewBox="0 0 365.17267 259.47534"
   sodipodi:docname="login.svg"
   inkscape:version="1.1.1 (3bf5ae0d25, 2021-09-20)"
   xmlns:inkscape="http://www.inkscape.org/namespaces/inkscape"
   xmlns:sodipodi="http://sodipodi.sourceforge.net/DTD/sodipodi-0.dtd"
   xmlns:xlink="http://www.w3.org/1999/xlink"
   xmlns="http://www.w3.org/2000/svg"
   xmlns:svg="http://www.w3.org/2000/svg"
   xmlns:rdf="http://www.w3.org/1999/02/22-rdf-syntax-ns#"
   xmlns:cc="http://creativecommons.org/ns#"
   xmlns:dc="http://purl.org/dc/elements/1.1/"><metadata
     id="metadata8"><rdf:RDF><cc:Work
         rdf:about=""><dc:format>image/svg+xml</dc:format><dc:type
           rdf:resource="http://purl.org/dc/dcmitype/StillImage" /></cc:Work></rdf:RDF></metadata><defs
     id="defs6"><clipPath
       clipPathUnits="userSpaceOnUse"
       id="clipPath20"><path
         d="M 0,0 H 500 V 500 H 0 Z"
         id="path18" /></clipPath><clipPath
       clipPathUnits="userSpaceOnUse"
       id="clipPath28"><path
         d="M 40.6979,656.975 H 600.654 V 50.6929 H 40.6979 Z"
         id="path26" /></clipPath><linearGradient
       x1="0"
       y1="0"
       x2="1"
       y2="0"
       gradientUnits="userSpaceOnUse"
       gradientTransform="matrix(-105.72463,-212.11856,212.11856,-105.72463,386.18369,458.88879)"
       spreadMethod="pad"
       id="linearGradient38"><stop
         style="stop-opacity:1;stop-color:#3f0d85"
         offset="0"
         id="stop34" /><stop
         style="stop-opacity:1;stop-color:#221783"
         offset="1"
         id="stop36" /></linearGradient><clipPath
       clipPathUnits="userSpaceOnUse"
       id="clipPath60"><path
         d="M -19.2345,609.812 H 567.403 V 47.5038 H -19.2345 Z"
         id="path58" /></clipPath><linearGradient
       x1="0"
       y1="0"
       x2="1"
       y2="0"
       gradientUnits="userSpaceOnUse"
       gradientTransform="matrix(-67.8483,538.623,-538.623,-67.8483,304.872,-87.27)"
       spreadMethod="pad"
       id="linearGradient66"><stop
         style="stop-opacity:1;stop-color:#3f0d85"
         offset="0"
         id="stop62" /><stop
         style="stop-opacity:1;stop-color:#221783"
         offset="1"
         id="stop64" /></linearGradient><clipPath
       clipPathUnits="userSpaceOnUse"
       id="clipPath82"><path
         d="M 0,500 H 500 V 0 H 0 Z"
         id="path80" /></clipPath><linearGradient
       x1="0"
       y1="0"
       x2="1"
       y2="0"
       gradientUnits="userSpaceOnUse"
       gradientTransform="matrix(276,-340,-340,-276,262.12726,376.87979)"
       spreadMethod="pad"
       id="linearGradient104"
       xlink:href="#linearGradient38"><stop
         style="stop-opacity:1;stop-color:#3f0d85"
         offset="0"
         id="stop100" /><stop
         style="stop-opacity:1;stop-color:#221783"
         offset="1"
         id="stop102" /></linearGradient><linearGradient
       x1="0"
       y1="0"
       x2="1"
       y2="0"
       gradientUnits="userSpaceOnUse"
       gradientTransform="matrix(28,-175.33333,-175.33333,-28,328.30423,147.15958)"
       spreadMethod="pad"
       id="linearGradient124"><stop
         style="stop-opacity:1;stop-color:#3f0d85"
         offset="0"
         id="stop120" /><stop
         style="stop-opacity:1;stop-color:#221783"
         offset="1"
         id="stop122" /></linearGradient><clipPath
       clipPathUnits="userSpaceOnUse"
       id="clipPath134"><path
         d="m 28.5,400 c -1.933,0 -3.5,-1.567 -3.5,-3.5 v 0 -293 c 0,-1.932 1.567,-3.5 3.5,-3.5 v 0 h 443 c 1.932,0 3.5,1.568 3.5,3.5 v 0 293 c 0,1.933 -1.568,3.5 -3.5,3.5 v 0 z"
         id="path132" /></clipPath><clipPath
       clipPathUnits="userSpaceOnUse"
       id="clipPath142"><path
         d="M 208.091,568.987 H 512.004 V 177.319 H 208.091 Z"
         id="path140" /></clipPath><clipPath
       clipPathUnits="userSpaceOnUse"
       id="clipPath162"><path
         d="M 0,500 H 500 V 0 H 0 Z"
         id="path160" /></clipPath><linearGradient
       x1="0"
       y1="0"
       x2="1"
       y2="0"
       gradientUnits="userSpaceOnUse"
       gradientTransform="matrix(52.519543,-59.38348,-59.38348,-52.519543,266.32593,332.26572)"
       spreadMethod="pad"
       id="linearGradient192"><stop
         style="stop-opacity:1;stop-color:#3fea85"
         offset="0"
         id="stop188" /><stop
         style="stop-opacity:1;stop-color:#221783"
         offset="1"
         id="stop190" /></linearGradient><clipPath
       clipPathUnits="userSpaceOnUse"
       id="clipPath202"><path
         d="m 289.987,284.521 16.759,5.013 c -30.107,3.482 -8.481,49.821 -32.278,53.197 v 0 c -0.892,0.126 -1.728,0.188 -2.514,0.187 v 0 c -21.851,-0.003 -3.483,-47.411 18.033,-58.397"
         id="path200" /></clipPath><clipPath
       clipPathUnits="userSpaceOnUse"
       id="clipPath210"><path
         d="m 260.038,357.352 h 51.791 v -78.988 h -51.791 z"
         id="path208" /></clipPath><linearGradient
       x1="0"
       y1="0"
       x2="1"
       y2="0"
       gradientUnits="userSpaceOnUse"
       gradientTransform="matrix(1.0345573,-49.797077,-49.797077,-1.0345573,298.38052,319.04385)"
       spreadMethod="pad"
       id="linearGradient248"><stop
         style="stop-opacity:1;stop-color:#3fea85"
         offset="0"
         id="stop244" /><stop
         style="stop-opacity:1;stop-color:#221783"
         offset="1"
         id="stop246" /></linearGradient><clipPath
       clipPathUnits="userSpaceOnUse"
       id="clipPath258"><path
         d="m 290.318,286.551 10.066,-4.409 c -13.011,13.903 16.182,27.319 6.151,38.607 v 0 c -1.679,1.889 -3.373,2.719 -5.013,2.719 v 0 c -8.944,0 -16.323,-24.656 -11.204,-36.917"
         id="path256" /></clipPath><clipPath
       clipPathUnits="userSpaceOnUse"
       id="clipPath266"><path
         d="M 287.615,322.945 H 318.19 V 274.841 H 287.615 Z"
         id="path264" /></clipPath><clipPath
       clipPathUnits="userSpaceOnUse"
       id="clipPath294"><path
         d="M 0,500 H 500 V 0 H 0 Z"
         id="path292" /></clipPath><linearGradient
       x1="0"
       y1="0"
       x2="1"
       y2="0"
       gradientUnits="userSpaceOnUse"
       gradientTransform="matrix(0,111.9072,111.9072,0,360.04694,162.33333)"
       spreadMethod="pad"
       id="linearGradient320"><stop
         style="stop-opacity:1;stop-color:#545b9c"
         offset="0"
         id="stop316" /><stop
         style="stop-opacity:1;stop-color:#6b3383"
         offset="1"
         id="stop318" /></linearGradient><clipPath
       clipPathUnits="userSpaceOnUse"
       id="clipPath330"><path
         d="M 0,500 H 500 V 0 H 0 Z"
         id="path328" /></clipPath><clipPath
       clipPathUnits="userSpaceOnUse"
       id="clipPath342"><path
         d="m 284.265,278.75 h 151.568 v -82 H 284.265 Z"
         id="path340" /></clipPath><clipPath
       clipPathUnits="userSpaceOnUse"
       id="clipPath362"><path
         d="M 293.991,268.009 H 426.106 V 228.4 H 293.991 Z"
         id="path360" /></clipPath><clipPath
       clipPathUnits="userSpaceOnUse"
       id="clipPath378"><path
         d="m 293.991,225.616 h 99.381 v -24.324 h -99.381 z"
         id="path376" /></clipPath><clipPath
       clipPathUnits="userSpaceOnUse"
       id="clipPath394"><path
         d="m 396.625,225.616 h 29.479 v -24.324 h -29.479 z"
         id="path392" /></clipPath><clipPath
       clipPathUnits="userSpaceOnUse"
       id="clipPath426"><path
         d="m 396,158.13 h 46.25 v -1.622 H 396 Z"
         id="path424" /></clipPath><clipPath
       clipPathUnits="userSpaceOnUse"
       id="clipPath518"><path
         d="m 225.833,174.105 h 51.161 v -1.622 h -51.161 z"
         id="path516" /></clipPath><clipPath
       clipPathUnits="userSpaceOnUse"
       id="clipPath606"><path
         d="m 296.955,256.76 h 47.442 v -39.52 h -47.442 z"
         id="path604" /></clipPath><clipPath
       clipPathUnits="userSpaceOnUse"
       id="clipPath638"><path
         d="m 362.856,265.164 h 29.418 v -24.506 h -29.418 z"
         id="path636" /></clipPath><clipPath
       clipPathUnits="userSpaceOnUse"
       id="clipPath670"><path
         d="m 28.5,400 c -1.933,0 -3.5,-1.567 -3.5,-3.5 v 0 -293 c 0,-1.932 1.567,-3.5 3.5,-3.5 v 0 h 443 c 1.932,0 3.5,1.568 3.5,3.5 v 0 293 c 0,1.933 -1.568,3.5 -3.5,3.5 v 0 z"
         id="path668" /></clipPath><clipPath
       clipPathUnits="userSpaceOnUse"
       id="clipPath678"><path
         d="M 292.931,534.708 H 576.747 V 265.292 H 292.931 Z"
         id="path676" /></clipPath><linearGradient
       x1="0"
       y1="0"
       x2="1"
       y2="0"
       gradientUnits="userSpaceOnUse"
       gradientTransform="matrix(11.712148,113.8572,-113.8572,11.712148,428.70261,331.84305)"
       spreadMethod="pad"
       id="linearGradient688"><stop
         style="stop-opacity:1;stop-color:#3f0d85"
         offset="0"
         id="stop684" /><stop
         style="stop-opacity:1;stop-color:#221783"
         offset="1"
         id="stop686" /></linearGradient><clipPath
       clipPathUnits="userSpaceOnUse"
       id="clipPath734"><path
         d="M 0,500 H 500 V 0 H 0 Z"
         id="path732" /></clipPath><clipPath
       clipPathUnits="userSpaceOnUse"
       id="clipPath752"><path
         d="M 0,500 H 500 V 0 H 0 Z"
         id="path750" /></clipPath><clipPath
       clipPathUnits="userSpaceOnUse"
       id="clipPath772"><path
         d="M 0,500 H 500 V 0 H 0 Z"
         id="path770" /></clipPath><clipPath
       clipPathUnits="userSpaceOnUse"
       id="clipPath784"><path
         d="M 0,500 H 500 V 0 H 0 Z"
         id="path782" /></clipPath></defs><sodipodi:namedview
     pagecolor="#ffffff"
     bordercolor="#666666"
     borderopacity="1"
     objecttolerance="10"
     gridtolerance="10"
     guidetolerance="10"
     inkscape:pageopacity="0"
     inkscape:pageshadow="2"
     inkscape:window-width="1920"
     inkscape:window-height="1001"
     id="namedview4"
     inkscape:pagecheckerboard="0"
     showgrid="false"
     inkscape:zoom="1.218"
     inkscape:cx="-0.41050904"
     inkscape:cy="117.8161"
     inkscape:window-x="-9"
     inkscape:window-y="-9"
     inkscape:window-maximized="1"
     inkscape:current-layer="g10"
     fit-margin-top="0"
     fit-margin-left="0"
     fit-margin-right="0"
     fit-margin-bottom="0" /><g
     id="g10"
     inkscape:groupmode="layer"
     inkscape:label="390030-PCG0RP-708"
     transform="matrix(1.3333333,0,0,-1.3333333,-262.64706,468.15265)"><g
       id="g9302"><g
         id="g8531"
         inkscape:export-filename="C:\Users\Giomara\Downloads\g8531.png"
         inkscape:export-xdpi="96"
         inkscape:export-ydpi="96"><g
           id="g156"><g
             id="g158"
             clip-path="url(#clipPath162)"><g
               id="g164"
               transform="translate(453.2148,326.9702)"><path
                 d="m 0,0 c -0.008,0.003 -0.015,0.006 -0.021,0.009 -6.314,7.999 -16.089,13.14 -27.071,13.14 -13.657,0 -25.458,-7.941 -31.04,-19.458 l -0.001,0.001 c -2.881,1.137 -6.017,1.752 -9.3,1.752 -12.975,0 -23.703,-9.659 -25.386,-22.181 -0.155,-1.128 -0.232,-2.274 -0.232,-3.445 0,-14.146 11.472,-25.617 25.618,-25.617 h 40.23 c 0.037,0 0.073,-0.003 0.111,-0.003 0.037,0 0.073,0.003 0.112,0.003 h 15.569 c 5.872,0 11.334,1.743 15.898,4.735 7.924,5.18 13.163,14.147 13.163,24.327 C 17.65,-14.745 10.377,-4.436 0,0"
                 style="fill:#f9f9fc;fill-opacity:1;fill-rule:nonzero;stroke:none"
                 id="path166" /></g><g
               id="g168"
               transform="translate(255.5703,337.4395)"><path
                 d="m 0,0 c -0.002,0 -0.005,0 -0.008,0 -1.915,2.047 -4.288,3.659 -6.956,4.674 -4.096,5.465 -10.625,9.001 -17.98,9.001 -8.6,0 -16.068,-4.837 -19.84,-11.936 -10e-4,0 -0.002,0 -0.002,0 -7.835,-1.334 -13.799,-8.157 -13.799,-16.368 0,-9.173 7.435,-16.608 16.607,-16.608 h 16.97 c 0.022,0 0.043,-0.001 0.064,-0.001 0.021,0 0.042,0.001 0.064,0.001 h 11.257 c 0.021,0 0.042,-0.001 0.064,-0.001 0.021,0 0.042,0.001 0.063,0.001 h 12.637 c 8.63,0 15.63,6.995 15.63,15.631 0,0.327 -0.009,0.654 -0.029,0.977 C 14.254,-6.736 7.908,-0.425 0,0"
                 style="fill:#f9f9fc;fill-opacity:1;fill-rule:nonzero;stroke:none"
                 id="path170" /></g><g
               id="g172"
               transform="translate(452.2168,200.7432)"><path
                 d="m 0,0 c -4.711,-0.001 -9.42,1.792 -13.006,5.379 l 7.777,7.777 c 2.883,-2.883 7.575,-2.883 10.458,0 1.396,1.398 2.166,3.254 2.166,5.229 0,1.974 -0.77,3.831 -2.166,5.227 l 7.777,7.78 C 16.48,27.917 18.395,23.298 18.395,18.385 18.395,13.472 16.48,8.853 13.006,5.378 9.421,1.793 4.71,0 0,0"
                 style="fill:#72d7e4;fill-opacity:1;fill-rule:nonzero;stroke:none"
                 id="path174" /></g></g></g><g
           id="g176"><g
             id="g178"><g
               id="g184"><g
                 id="g186"><path
                   d="m 289.987,284.521 16.759,5.013 c -30.107,3.482 -8.481,49.821 -32.278,53.197 v 0 c -0.892,0.126 -1.728,0.188 -2.514,0.187 v 0 c -21.851,-0.003 -3.483,-47.411 18.033,-58.397"
                   style="fill:url(#linearGradient192);stroke:none"
                   id="path194" /></g></g></g></g><g
           id="g196"><g
             id="g198"
             clip-path="url(#clipPath202)"><g
               id="g204"><g
                 id="g206" /><g
                 id="g230"><g
                   clip-path="url(#clipPath210)"
                   opacity="0.300003"
                   id="g228"><g
                     transform="translate(311.542,278.3638)"
                     id="g214"><path
                       d="m 0,0 c -0.251,0.136 -25.218,13.792 -34.13,34.533 -4.46,10.378 -5.709,18.008 -4.051,24.74 1.685,6.84 6.394,12.828 12.947,19.715 l 0.436,-0.416 C -38.829,63.825 -42.265,54.99 -33.576,34.771 -24.748,14.225 0.037,0.666 0.287,0.531 Z"
                       style="fill:#72d7e4;fill-opacity:1;fill-rule:nonzero;stroke:none"
                       id="path212" /></g><g
                     transform="translate(273.2891,326.5815)"
                     id="g218"><path
                       d="m 0,0 c -10.557,2.193 -13.146,7.856 -13.251,8.096 l 0.553,0.243 C -12.674,8.283 -10.104,2.714 0.123,0.59 Z"
                       style="fill:#72d7e4;fill-opacity:1;fill-rule:nonzero;stroke:none"
                       id="path216" /></g><g
                     transform="translate(278.2217,311.7656)"
                     id="g222"><path
                       d="m 0,0 -0.207,0.566 c 5.981,2.19 10.342,9.847 10.385,9.924 l 0.525,-0.295 C 10.522,9.872 6.188,2.266 0,0"
                       style="fill:#72d7e4;fill-opacity:1;fill-rule:nonzero;stroke:none"
                       id="path220" /></g><g
                     transform="translate(284.0518,301.9287)"
                     id="g226"><path
                       d="m 0,0 c -18.363,-0.064 -21.338,8.558 -21.455,8.925 l 0.574,0.184 -0.287,-0.092 0.287,0.092 c 0.028,-0.085 3,-8.568 20.879,-8.505 z"
                       style="fill:#72d7e4;fill-opacity:1;fill-rule:nonzero;stroke:none"
                       id="path224" /></g></g></g></g></g></g><g
           id="g232"><g
             id="g234"><g
               id="g240"><g
                 id="g242"><path
                   d="m 290.318,286.551 10.066,-4.409 c -13.011,13.903 16.182,27.319 6.151,38.607 v 0 c -1.679,1.889 -3.373,2.719 -5.013,2.719 v 0 c -8.944,0 -16.323,-24.656 -11.204,-36.917"
                   style="fill:url(#linearGradient248);stroke:none"
                   id="path250" /></g></g></g></g><g
           id="g252"><g
             id="g254"
             clip-path="url(#clipPath258)"><g
               id="g260"><g
                 id="g262" /><g
                 id="g286"><g
                   clip-path="url(#clipPath266)"
                   opacity="0.300003"
                   id="g284"><g
                     transform="translate(298.1436,274.8413)"
                     id="g270"><path
                       d="m 0,0 c -0.065,0.167 -6.479,16.856 -2.322,30.417 2.081,6.785 4.583,10.948 8.113,13.5 3.587,2.593 8.276,3.549 14.215,4.187 l 0.04,-0.377 C 7.33,46.362 2.094,43.524 -1.96,30.306 -6.078,16.873 0.288,0.304 0.353,0.138 Z"
                       style="fill:#72d7e4;fill-opacity:1;fill-rule:nonzero;stroke:none"
                       id="path268" /></g><g
                     transform="translate(299.4072,313.4902)"
                     id="g274"><path
                       d="M 0,0 C -4.168,5.341 -3.106,9.107 -3.06,9.265 L -2.696,9.156 C -2.707,9.12 -3.738,5.407 0.299,0.233 Z"
                       style="fill:#72d7e4;fill-opacity:1;fill-rule:nonzero;stroke:none"
                       id="path272" /></g><g
                     transform="translate(295.75,304.3867)"
                     id="g278"><path
                       d="M 0,0 0.131,0.355 C 3.887,-1.026 9.088,0.872 9.14,0.891 L 9.271,0.536 C 9.054,0.455 3.886,-1.429 0,0"
                       style="fill:#72d7e4;fill-opacity:1;fill-rule:nonzero;stroke:none"
                       id="path276" /></g><g
                     transform="translate(294.5469,297.3042)"
                     id="g282"><path
                       d="m 0,0 c -8.825,7.431 -6.747,12.771 -6.654,12.995 l 0.349,-0.145 -0.174,0.072 0.174,-0.072 C -6.326,12.798 -8.349,7.525 0.244,0.29 Z"
                       style="fill:#72d7e4;fill-opacity:1;fill-rule:nonzero;stroke:none"
                       id="path280" /></g></g></g></g></g></g><g
           id="g288"><g
             id="g290"
             clip-path="url(#clipPath294)"><g
               id="g296"
               transform="translate(452.499,177.3838)"><path
                 d="m 0,0 c -0.736,-1.916 -2.592,-3.279 -4.77,-3.279 h -175.36 c -2.179,0 -4.04,1.363 -4.776,3.279 -0.335,0.883 0.322,1.826 1.265,1.826 H -1.266 C -0.322,1.826 0.335,0.883 0,0"
                 style="fill:#bdbdec;fill-opacity:1;fill-rule:nonzero;stroke:none"
                 id="path298" /></g><g
               id="g300"
               transform="translate(443.0996,179.209)"><path
                 d="m 0,0 h -166.105 c -5.377,0 -9.736,4.358 -9.736,9.735 v 98.568 c 0,5.377 4.359,9.736 9.736,9.736 H 0 c 5.377,0 9.735,-4.359 9.735,-9.736 V 9.735 C 9.735,4.358 5.377,0 0,0"
                 style="fill:#e8e8fc;fill-opacity:1;fill-rule:nonzero;stroke:none"
                 id="path302" /></g></g></g><g
           id="g306"><g
             id="g312"><g
               id="g314"><path
                 d="m 279.833,287.512 c -1.567,0 -2.839,-1.271 -2.839,-2.839 v 0 -92.89 c 0,-1.568 1.272,-2.839 2.839,-2.839 v 0 h 160.428 c 1.567,0 2.839,1.271 2.839,2.839 v 0 92.89 c 0,1.568 -1.272,2.839 -2.839,2.839 v 0 z"
                 style="fill:url(#linearGradient320);stroke:none"
                 id="path322" /></g></g></g><g
           id="g324"><g
             id="g326"
             clip-path="url(#clipPath330)"><g
               id="g332"
               transform="translate(376.6807,179.21)"><path
                 d="m 0,0 v -0.828 c 0,-0.949 -0.778,-1.728 -1.728,-1.728 h -29.814 c -0.949,0 -1.722,0.779 -1.722,1.728 V 0 Z"
                 style="fill:#ffffff;fill-opacity:1;fill-rule:nonzero;stroke:none"
                 id="path334" /></g><g
               id="g336"><g
                 id="g338" /><g
                 id="g350"><g
                   clip-path="url(#clipPath342)"
                   opacity="0.350006"
                   id="g348"><g
                     transform="translate(435.833,278.75)"
                     id="g346"><path
                       d="m 0,0 h -151.568 v -78.396 c 0,-1.991 1.613,-3.604 3.604,-3.604 H -3.604 C -1.613,-82 0,-80.387 0,-78.396 Z m -0.75,-0.75 v -77.646 c 0,-1.574 -1.28,-2.854 -2.854,-2.854 h -144.36 c -1.574,0 -2.854,1.28 -2.854,2.854 V -0.75 H -0.75"
                       style="fill:#ffffff;fill-opacity:1;fill-rule:nonzero;stroke:none"
                       id="path344" /></g></g></g></g><g
               id="g352"
               transform="translate(434.4746,276.2402)"><path
                 d="m 0,0 h -148.851 c -0.751,0 -1.359,0.608 -1.359,1.359 v 2.302 c 0,0.75 0.608,1.359 1.359,1.359 H 0 c 0.75,0 1.358,-0.609 1.358,-1.359 V 1.359 C 1.358,0.608 0.75,0 0,0"
                 style="fill:#e8e8fc;fill-opacity:1;fill-rule:nonzero;stroke:none"
                 id="path354" /></g><g
               id="g356"><g
                 id="g358" /><g
                 id="g370"><g
                   clip-path="url(#clipPath362)"
                   opacity="0.350006"
                   id="g368"><g
                     transform="translate(297.375,267.2593)"
                     id="g366"><path
                       d="m 0,0 c -1.452,0 -2.634,-1.182 -2.634,-2.634 v -32.841 c 0,-1.452 1.182,-2.634 2.634,-2.634 h 125.348 c 1.452,0 2.633,1.182 2.633,2.634 V -2.634 C 127.981,-1.182 126.8,0 125.348,0 Z M 125.348,-38.859 H 0 c -1.866,0 -3.384,1.518 -3.384,3.384 v 32.841 c 0,1.866 1.518,3.384 3.384,3.384 h 125.348 c 1.866,0 3.383,-1.518 3.383,-3.384 v -32.841 c 0,-1.866 -1.517,-3.384 -3.383,-3.384"
                       style="fill:#ffffff;fill-opacity:1;fill-rule:nonzero;stroke:none"
                       id="path364" /></g></g></g></g><g
               id="g372"><g
                 id="g374" /><g
                 id="g386"><g
                   clip-path="url(#clipPath378)"
                   opacity="0.350006"
                   id="g384"><g
                     transform="translate(297.375,224.8662)"
                     id="g382"><path
                       d="M 0,0 C -1.452,0 -2.634,-1.182 -2.634,-2.634 V -20.19 c 0,-1.453 1.182,-2.634 2.634,-2.634 h 92.613 c 1.452,0 2.634,1.181 2.634,2.634 V -2.634 C 95.247,-1.182 94.065,0 92.613,0 Z M 92.613,-23.574 H 0 c -1.866,0 -3.384,1.517 -3.384,3.384 v 17.556 c 0,1.866 1.518,3.384 3.384,3.384 h 92.613 c 1.866,0 3.384,-1.518 3.384,-3.384 V -20.19 c 0,-1.867 -1.518,-3.384 -3.384,-3.384"
                       style="fill:#ffffff;fill-opacity:1;fill-rule:nonzero;stroke:none"
                       id="path380" /></g></g></g></g><g
               id="g388"><g
                 id="g390" /><g
                 id="g402"><g
                   clip-path="url(#clipPath394)"
                   opacity="0.350006"
                   id="g400"><g
                     transform="translate(400.0088,224.8662)"
                     id="g398"><path
                       d="M 0,0 C -1.452,0 -2.634,-1.182 -2.634,-2.634 V -20.19 c 0,-1.453 1.182,-2.634 2.634,-2.634 h 22.711 c 1.452,0 2.634,1.181 2.634,2.634 V -2.634 C 25.345,-1.182 24.163,0 22.711,0 Z M 22.711,-23.574 H 0 c -1.866,0 -3.384,1.517 -3.384,3.384 v 17.556 c 0,1.866 1.518,3.384 3.384,3.384 h 22.711 c 1.866,0 3.384,-1.518 3.384,-3.384 V -20.19 c 0,-1.867 -1.518,-3.384 -3.384,-3.384"
                       style="fill:#ffffff;fill-opacity:1;fill-rule:nonzero;stroke:none"
                       id="path396" /></g></g></g></g><g
               id="g404"
               transform="translate(290.6045,278.75)"><path
                 d="m 0,0 c 0,-0.69 -0.56,-1.25 -1.25,-1.25 -0.69,0 -1.25,0.56 -1.25,1.25 0,0.69 0.56,1.25 1.25,1.25 C -0.56,1.25 0,0.69 0,0"
                 style="fill:#ffa272;fill-opacity:1;fill-rule:nonzero;stroke:none"
                 id="path406" /></g><g
               id="g408"
               transform="translate(294.6045,278.75)"><path
                 d="m 0,0 c 0,-0.69 -0.56,-1.25 -1.25,-1.25 -0.69,0 -1.25,0.56 -1.25,1.25 0,0.69 0.56,1.25 1.25,1.25 C -0.56,1.25 0,0.69 0,0"
                 style="fill:#72d7e4;fill-opacity:1;fill-rule:nonzero;stroke:none"
                 id="path410" /></g><g
               id="g412"
               transform="translate(298.6045,278.75)"><path
                 d="m 0,0 c 0,-0.69 -0.56,-1.25 -1.25,-1.25 -0.69,0 -1.25,0.56 -1.25,1.25 0,0.69 0.56,1.25 1.25,1.25 C -0.56,1.25 0,0.69 0,0"
                 style="fill:#ff3c88;fill-opacity:1;fill-rule:nonzero;stroke:none"
                 id="path414" /></g><g
               id="g416"
               transform="translate(362.7139,292)"><path
                 d="m 0,0 c 0,-1.473 -1.194,-2.667 -2.667,-2.667 -1.473,0 -2.667,1.194 -2.667,2.667 0,1.473 1.194,2.667 2.667,2.667 C -1.194,2.667 0,1.473 0,0"
                 style="fill:#c5c5ea;fill-opacity:1;fill-rule:nonzero;stroke:none"
                 id="path418" /></g><g
               id="g420"><g
                 id="g422" /><g
                 id="g434"><g
                   clip-path="url(#clipPath426)"
                   opacity="0.199997"
                   id="g432"><g
                     transform="translate(442.25,157.3193)"
                     id="g430"><path
                       d="m 0,0 c 0,-0.448 -10.354,-0.812 -23.125,-0.812 -12.771,0 -23.125,0.364 -23.125,0.812 0,0.447 10.354,0.811 23.125,0.811 C -10.354,0.811 0,0.447 0,0"
                       style="fill:#1c1e38;fill-opacity:1;fill-rule:nonzero;stroke:none"
                       id="path428" /></g></g></g></g><g
               id="g436"
               transform="translate(419.1611,230.5273)"><path
                 d="m 0,0 c -0.196,0.471 -1.226,4.192 -0.732,4.323 l 3.455,0.92 C 3.06,5.332 4.111,4.008 4.22,3.682 4.228,3.657 4.483,2.77 4.481,2.744 4.47,2.611 4.778,0.925 5.12,0.265 5.231,0.049 5.438,-0.156 5.679,-0.339 6.066,-0.633 6.541,-0.871 6.844,-1.009 6.975,-1.068 6.99,-1.247 6.871,-1.327 5.705,-2.119 1.184,-5.105 -0.251,-4.788 -1.851,-4.433 1.195,-2.869 0,0"
                 style="fill:#db928d;fill-opacity:1;fill-rule:nonzero;stroke:none"
                 id="path438" /></g><g
               id="g440"
               transform="translate(415.5146,236.5469)"><path
                 d="m 0,0 c 0,-3.836 0.232,-8.407 2.602,-7.385 2.379,1.027 6.68,2.436 6.68,6.271 0,3.836 -0.568,6.946 -4.671,6.946 C 2.031,5.832 0,3.836 0,0"
                 style="fill:#f8b7b0;fill-opacity:1;fill-rule:nonzero;stroke:none"
                 id="path442" /></g><g
               id="g444"
               transform="translate(406.1084,160.6689)"><path
                 d="m 0,0 2.255,-0.729 c 0.111,-0.036 0.23,0.026 0.266,0.136 L 3.098,1.191 C 3.134,1.302 3.072,1.422 2.962,1.457 L 0.707,2.187 C 0.596,2.222 0.477,2.16 0.44,2.05 L -0.136,0.266 C -0.172,0.155 -0.11,0.035 0,0"
                 style="fill:#ffa272;fill-opacity:1;fill-rule:nonzero;stroke:none"
                 id="path446" /></g><g
               id="g448"
               transform="translate(409.0039,160.3379)"><path
                 d="m 0,0 c 0,0 -0.502,-2.575 -0.898,-2.778 -0.396,-0.202 -2.268,0.402 -3.218,1.04 -0.951,0.637 -1.902,0.366 -3.847,0.995 -1.054,0.341 -1.841,0.86 -1.841,0.86 0,0 -0.183,1.209 1.709,0.928 1.894,-0.281 4.157,-0.186 4.652,0.067 C -2.948,1.366 -2.127,0.273 0,0"
                 style="fill:#ff3c88;fill-opacity:1;fill-rule:nonzero;stroke:none"
                 id="path450" /></g><g
               id="g452"
               transform="translate(435.6338,162.2666)"><path
                 d="M 0,0 1.993,1.281 C 2.092,1.344 2.12,1.476 2.057,1.573 L 1.044,3.15 C 0.98,3.248 0.85,3.276 0.751,3.214 L -1.242,1.933 C -1.34,1.87 -1.368,1.738 -1.306,1.641 L -0.292,0.063 C -0.229,-0.034 -0.098,-0.062 0,0"
                 style="fill:#ffa272;fill-opacity:1;fill-rule:nonzero;stroke:none"
                 id="path454" /></g><g
               id="g456"
               transform="translate(437.7256,164.2949)"><path
                 d="M 0,0 C 0,0 1.673,-2.021 1.579,-2.456 1.484,-2.892 -0.17,-3.954 -1.267,-4.285 -2.363,-4.615 -2.9,-6.764 -4.941,-6.898 c -2.609,-0.174 -2.36,0 -2.36,0 0,0 -0.532,0.774 1.733,1.656 1.807,0.703 2.406,2.742 2.524,3.286 C -2.926,-1.413 -1.561,-1.471 0,0"
                 style="fill:#ff3c88;fill-opacity:1;fill-rule:nonzero;stroke:none"
                 id="path458" /></g><g
               id="g460"
               transform="translate(428.6953,201.4297)"><path
                 d="m 0,0 c 0.145,-4.496 1.503,-15.068 1.386,-16.498 -0.117,-1.429 -6.583,-5.333 -7.304,-2.662 -0.721,2.672 -4.77,17.586 -6.583,23.259 -1.813,5.672 9.585,4.792 9.585,4.792 0,0 2.622,0.249 2.916,-8.891"
                 style="fill:#1876aa;fill-opacity:1;fill-rule:nonzero;stroke:none"
                 id="path462" /></g><g
               id="g464"
               transform="translate(433.2217,177.0791)"><path
                 d="m 0,0 c 1.529,-3.942 4.07,-8.923 4.429,-10.18 0.359,-1.256 -3.44,-4.813 -4.842,-2.484 -1.402,2.329 -8.361,12.518 -10.119,18.134 -1.369,4.375 6.598,4.93 6.598,4.93 0,0 0.826,-2.387 3.934,-10.4"
                 style="fill:#1876aa;fill-opacity:1;fill-rule:nonzero;stroke:none"
                 id="path466" /></g><g
               id="g468"
               transform="translate(425.3262,198.8555)"><path
                 d="m 0,0 c -2.118,-3.969 -6.216,-13.81 -7.03,-14.989 -0.815,-1.18 -8.366,-1.337 -7.658,1.337 0.708,2.674 4.641,17.62 5.899,23.441 C -7.53,15.609 1.909,9.159 1.909,9.159 1.909,9.159 4.306,8.067 0,0"
                 style="fill:#1e8fdc;fill-opacity:1;fill-rule:nonzero;stroke:none"
                 id="path470" /></g><g
               id="g472"
               transform="translate(414.4463,214.5039)"><path
                 d="m 0,0 c -3.956,-0.087 -10.046,0.719 -11.188,1.369 -1.142,0.652 -0.926,2.932 0.405,2.87 1.331,-0.061 7.998,0.421 10.049,-0.242"
                 style="fill:#ffa272;fill-opacity:1;fill-rule:nonzero;stroke:none"
                 id="path474" /></g><g
               id="g476"
               transform="translate(415.459,174.3584)"><path
                 d="m 0,0 c -1.264,-4.035 -3.603,-10.501 -4.105,-11.707 -0.503,-1.206 -5.692,-1.617 -5.335,1.078 0.356,2.695 2.49,15.987 4.619,21.474 1.659,4.274 8.233,-0.261 8.233,-0.261 C 3.412,10.584 2.568,8.202 0,0"
                 style="fill:#1e8fdc;fill-opacity:1;fill-rule:nonzero;stroke:none"
                 id="path478" /></g><g
               id="g480"
               transform="translate(427.9004,220.4434)"><path
                 d="m 0,0 c 1.694,-3.498 2.188,-6.713 2.796,-7.552 1.859,-2.564 2.158,-1.327 3.366,-0.239 0.445,0.401 0.707,1.036 0.531,1.608 -0.942,3.066 -2.769,10.89 -4.683,12.948 -2.098,2.255 -3.196,2.483 -5.071,2.98 0,0 -3.095,-2.277 -5.41,-1.344 0,0 -1.322,-0.501 -1.843,-1.846 -1.888,-4.877 -1.835,-7.079 -1.731,-9.911 0.129,-3.473 0.635,-6.598 0.367,-7.971 -0.408,-2.104 -0.493,-2.747 0.367,-2.865 0.872,-0.121 11.066,-0.439 11.223,0.4 0.026,0.135 0.442,0.261 0.445,0.655 0.016,1.926 -1.302,6.709 -0.534,10.602 0.132,0.67 0.189,1.352 0.182,2.036 z"
                 style="fill:#ffa272;fill-opacity:1;fill-rule:nonzero;stroke:none"
                 id="path482" /></g><g
               id="g484"
               transform="translate(418.6611,239.1865)"><path
                 d="m 0,0 c 0,0 -3.143,-1.104 -3.721,-0.615 -0.328,0.276 -0.608,0.689 -0.791,0.996 -0.05,0.084 0.044,0.182 0.13,0.134 0.095,-0.053 0.203,-0.099 0.318,-0.117 0.347,-0.056 1.01,1.133 2.131,1.768 0.07,0.04 0.064,0.144 -0.011,0.174 -0.167,0.068 -0.396,0.177 -0.5,0.294 -0.175,0.197 1.609,-0.035 2.716,0.537 1.107,0.572 5.102,0.526 5.477,-0.633"
                 style="fill:#1c1e38;fill-opacity:1;fill-rule:nonzero;stroke:none"
                 id="path486" /></g><g
               id="g488"
               transform="translate(420.4521,234.4707)"><path
                 d="m 0,0 c 0,0 -3.013,2.832 -2.452,4.206 0.56,1.375 3.34,3.348 5.88,3.144 C 5.968,7.145 6.067,3.914 5.315,2 4.562,0.085 3.771,-1.327 3.771,-1.327 3.771,-1.327 1.549,0.185 0,0"
                 style="fill:#1c1e38;fill-opacity:1;fill-rule:nonzero;stroke:none"
                 id="path490" /></g><g
               id="g492"
               transform="translate(419.6973,235.3613)"><path
                 d="m 0,0 c -0.184,-0.761 0.153,-1.495 0.754,-1.64 0.6,-0.145 1.234,0.355 1.418,1.116 C 2.355,0.236 2.019,0.971 1.418,1.115 0.818,1.26 0.184,0.761 0,0"
                 style="fill:#f8b7b0;fill-opacity:1;fill-rule:nonzero;stroke:none"
                 id="path494" /></g><g
               id="g496"
               transform="translate(438.6543,199.5459)"><path
                 d="m 0,0 -44.666,21.816 3.949,8.086 L 3.949,8.086 Z"
                 style="fill:#ff3c88;fill-opacity:1;fill-rule:nonzero;stroke:none"
                 id="path498" /></g><g
               id="g500"
               transform="translate(402.0244,216.5781)"><path
                 d="M 0,0 C 0.998,-0.445 2.578,-1.24 2.93,-0.453 3.281,0.333 2.449,1.019 1.452,1.465 0.454,1.911 -0.968,2.029 -1.319,1.243 -1.671,0.456 -0.997,0.446 0,0"
                 style="fill:#f8b7b0;fill-opacity:1;fill-rule:nonzero;stroke:none"
                 id="path502" /></g><g
               id="g504"
               transform="translate(426.0879,208.9951)"><path
                 d="m 0,0 c 0.22,-0.411 0.701,-0.799 0.701,-0.799 0,0 -1.608,-1.206 -2.463,-1.568 -0.854,-0.362 -1.118,-0.438 -2.16,-0.514 -1.043,-0.076 -2.043,-0.042 -2.449,1.307 -0.328,1.091 1.089,1.83 1.89,1.789 0.801,-0.041 2.14,-0.482 2.749,-0.248 0.608,0.234 1.462,0.737 1.462,0.737 0,0 0.062,-0.314 0.27,-0.704"
                 style="fill:#f8b7b0;fill-opacity:1;fill-rule:nonzero;stroke:none"
                 id="path506" /></g><g
               id="g508"
               transform="translate(432.2695,216.4053)"><path
                 d="m 0,0 c -3.094,-2.467 -6.824,-5.654 -7.284,-6.886 -0.461,-1.232 1.522,-3.597 2.506,-2.697 0.982,0.899 5.623,4.221 6.774,6.043"
                 style="fill:#ffa272;fill-opacity:1;fill-rule:nonzero;stroke:none"
                 id="path510" /></g><g
               id="g512"><g
                 id="g514" /><g
                 id="g526"><g
                   clip-path="url(#clipPath518)"
                   opacity="0.199997"
                   id="g524"><g
                     transform="translate(276.9941,173.2939)"
                     id="g522"><path
                       d="m 0,0 c 0,-0.448 -11.453,-0.812 -25.58,-0.812 -14.128,0 -25.581,0.364 -25.581,0.812 0,0.447 11.453,0.811 25.581,0.811 C -11.453,0.811 0,0.447 0,0"
                       style="fill:#1c1e38;fill-opacity:1;fill-rule:nonzero;stroke:none"
                       id="path520" /></g></g></g></g><g
               id="g528"
               transform="translate(247.5469,189.4209)"><path
                 d="M 0,0 -1.198,16.392 H 17.334 L 21.461,0 Z M 26.52,-15.306 13.404,36.783 c -0.079,0.314 -0.395,0.501 -0.709,0.424 -0.313,-0.078 -0.503,-0.395 -0.424,-0.709 L 17.04,17.56 H -1.284 l -1.398,19.124 c -0.023,0.321 -0.293,0.558 -0.625,0.54 C -3.628,37.2 -3.87,36.92 -3.846,36.599 l 3.807,-52.09 c 0.022,-0.307 0.279,-0.541 0.582,-0.541 0.014,0 0.028,0.001 0.043,0.002 0.322,0.023 0.564,0.303 0.54,0.625 L 0.085,-1.169 h 21.671 l 3.631,-14.422 c 0.066,-0.264 0.304,-0.441 0.566,-0.441 0.047,0 0.095,0.006 0.143,0.017 0.312,0.079 0.503,0.397 0.424,0.709"
                 style="fill:#d17198;fill-opacity:1;fill-rule:nonzero;stroke:none"
                 id="path530" /></g><g
               id="g532"
               transform="translate(258.4043,206.9805)"><path
                 d="m 0,0 h -18.324 l 4.562,18.117 H 1.324 Z m -22.745,-17.56 4.127,16.392 H -0.086 L -1.284,-17.56 Z M 2.667,20.046 h -17.475 c -0.53,0 -0.964,-0.435 -0.964,-0.965 0,-0.477 0.357,-0.858 0.813,-0.934 l -12.845,-51.012 c -0.078,-0.313 0.111,-0.63 0.424,-0.709 0.048,-0.012 0.096,-0.018 0.143,-0.018 0.261,0 0.5,0.177 0.566,0.442 l 3.631,14.421 H -1.369 L -2.41,-32.965 c -0.024,-0.321 0.218,-0.601 0.54,-0.625 0.015,-10e-4 0.028,-0.002 0.043,-0.002 0.304,0 0.559,0.235 0.582,0.541 l 3.74,51.168 h 0.172 c 0.53,0 0.964,0.434 0.964,0.964 0,0.53 -0.434,0.965 -0.964,0.965"
                 style="fill:#f28fb5;fill-opacity:1;fill-rule:nonzero;stroke:none"
                 id="path534" /></g><g
               id="g536"
               transform="translate(247.5898,259.1602)"><path
                 d="m 0,0 c 0.38,-0.114 0.785,-0.451 0.785,-0.451 0,0 0.736,1.546 0.894,2.321 C 1.837,2.644 1.855,2.877 1.743,3.76 1.63,4.644 1.434,5.472 0.239,5.584 -0.727,5.674 -1.105,4.367 -0.936,3.705 -0.766,3.042 -0.172,1.999 -0.265,1.452 -0.358,0.904 -0.634,0.106 -0.634,0.106 -0.634,0.106 -0.36,0.107 0,0"
                 style="fill:#f8b7b0;fill-opacity:1;fill-rule:nonzero;stroke:none"
                 id="path538" /></g><g
               id="g540"
               transform="translate(242.2012,245.0859)"><path
                 d="m 0,0 c 2.235,1.3 5.014,2.896 5.877,4.851 0.892,2.02 0.97,8.349 0.898,9.507 -0.009,0.149 -0.088,0.285 -0.212,0.37 C 5.775,15.271 4.888,15.213 4.722,15.009 4.542,14.787 4.848,7.642 2.776,5.341 1.33,3.735 1.066,3.808 -0.646,3.003 -2.254,2.247 -3.449,2.881 -3.532,0.938 -3.614,-1.003 -2.114,-1.23 0,0"
                 style="fill:#9b1f51;fill-opacity:1;fill-rule:nonzero;stroke:none"
                 id="path542" /></g><g
               id="g544"
               transform="translate(242.5347,244.748)"><path
                 d="M 0,0 C 1.99,-0.264 3.253,0.815 3.652,1.312 4.052,1.81 2.77,2.31 2.306,2.809 2.108,3.021 2.028,3.366 2.023,3.807 2.016,4.4 2,6.285 2.167,7.129 L -1.689,6.712 c 0,0 0.128,-1.969 0.127,-2.705 0,-0.132 -0.017,-0.243 -0.049,-0.343 C -1.758,3.206 -2.238,3.011 -3.003,2.408 -3.934,1.675 -1.99,0.264 0,0"
                 style="fill:#f8b7b0;fill-opacity:1;fill-rule:nonzero;stroke:none"
                 id="path546" /></g><g
               id="g548"
               transform="translate(239.167,251.9888)"><path
                 d="M 0,0 C 1.14,-1.945 1.727,-2.87 2.929,-3.315 4.13,-3.76 5.15,-3.756 5.818,-3.437 6.653,-3.038 7.215,-1.002 7.026,-0.039 6.83,0.958 6.059,3.398 4.747,5.498 4.082,6.562 2.167,7.322 0.856,6.695 -0.456,6.068 -2.786,4.75 0,0"
                 style="fill:#f8b7b0;fill-opacity:1;fill-rule:nonzero;stroke:none"
                 id="path550" /></g><g
               id="g552"
               transform="translate(243.9434,255.1978)"><path
                 d="m 0,0 c 0.595,-1.87 0.459,-2.719 -0.058,-3.82 -0.518,-1.101 -1.497,-1.696 -2.202,-1.749 -0.891,-0.069 -1.095,0.173 -2.649,1.629 -0.649,0.608 -1.724,1.448 -2.309,3.524 -0.297,1.053 0.49,2.836 1.849,3.434 C -4.011,3.617 -1.453,4.569 0,0"
                 style="fill:#1c1e38;fill-opacity:1;fill-rule:nonzero;stroke:none"
                 id="path554" /></g><g
               id="g556"
               transform="translate(244.9209,254.0283)"><path
                 d="m 0,0 c 0.21,-0.701 -0.019,-1.396 -0.511,-1.55 -0.493,-0.155 -1.063,0.288 -1.273,0.989 -0.211,0.702 0.018,1.396 0.511,1.551 C -0.78,1.145 -0.21,0.702 0,0"
                 style="fill:#f8b7b0;fill-opacity:1;fill-rule:nonzero;stroke:none"
                 id="path558" /></g><g
               id="g560"
               transform="translate(242.9102,255.9585)"><path
                 d="M 0,0 C 0.688,0.977 1.652,1.926 0.707,2.598 -0.239,3.27 -2.602,4.015 -4.762,2.176 -7.318,0 0,0 0,0"
                 style="fill:#1c1e38;fill-opacity:1;fill-rule:nonzero;stroke:none"
                 id="path562" /></g><g
               id="g564"
               transform="translate(252.0312,190.3779)"><path
                 d="m 0,0 c -2.051,0.11 -3.842,0.663 -3.757,-0.597 0.071,-1.068 0.164,-0.977 3.671,-0.997 2.055,-0.011 3.734,0.156 3.758,0.596 C 3.696,-0.558 2.052,-0.111 0,0"
                 style="fill:#9b1f51;fill-opacity:1;fill-rule:nonzero;stroke:none"
                 id="path566" /></g><g
               id="g568"
               transform="translate(242.1343,190.377)"><path
                 d="m 0,0 c -1.94,0.677 -3.842,0.664 -3.758,-0.596 0.072,-1.069 -0.07,-0.977 3.437,-0.997 2.054,-0.011 2.588,0.414 2.251,0.697 C 1.379,-0.431 0.823,-0.287 0,0"
                 style="fill:#9b1f51;fill-opacity:1;fill-rule:nonzero;stroke:none"
                 id="path570" /></g><g
               id="g572"
               transform="translate(244.9292,248.2012)"><path
                 d="m 0,0 c -1.891,-0.004 -2.905,0.086 -5.122,-0.447 -1.547,-0.372 -3.211,-1.372 -2.61,-5.995 0,0 1.158,-11.374 1.227,-12.929 0.16,-3.661 -0.891,-4.403 2.059,-4.141 3.111,0.279 6.813,0.132 8.314,0.311 0.468,0.055 0.336,1.17 0.153,2.538 C 3.874,-19.556 2.988,-10.892 3.107,-6.82 3.125,-4.013 3.879,0.009 0,0"
                 style="fill:#ff3c88;fill-opacity:1;fill-rule:nonzero;stroke:none"
                 id="path574" /></g><g
               id="g576"
               transform="translate(238.7017,191.7432)"><path
                 d="m 0,0 c -0.111,-1.098 -0.246,-1.507 -0.246,-1.507 0,0 0.725,-0.135 2.991,0.147 0.222,0.028 0.608,3.264 0.754,4.818 0.152,1.589 0.847,9.13 0.794,10.917 -0.058,1.782 0.275,12.529 0.275,12.529 h 0.783 c 0,0 2.172,-5.584 2.482,-7.576 C 8.3,16.285 8.657,14.457 8.61,13.388 8.534,11.479 9.445,1.672 9.614,0.626 c 0.17,-1.045 0,-2.149 0,-2.149 0,0 1.665,-0.508 3.377,-0.065 0,0 -0.24,14.585 -0.292,16.944 -0.035,1.63 -1.198,9.959 -1.852,14.528 -0.012,0.104 -0.023,0.204 -0.041,0.303 -0.234,1.63 -0.391,2.71 -0.391,2.71 0,0 0,0.445 -0.392,0.498 -0.198,0.028 -0.449,0.075 -1.25,0.116 -0.093,0.006 -0.198,0.006 -0.309,0.017 -0.759,0.024 -1.928,0.047 -3.756,0.047 -4.34,0 -5.035,-0.105 -5.035,-0.403 0,0 0.526,-15.514 0.637,-17.973 C 0.426,12.74 0.111,1.099 0,0"
                 style="fill:#43a2cc;fill-opacity:1;fill-rule:nonzero;stroke:none"
                 id="path578" /></g><g
               id="g580"
               transform="translate(247.1655,225.2715)"><path
                 d="M 0,0 C 0.111,-0.012 0.216,-0.012 0.31,-0.018 0.21,-0.28 0.158,-0.566 0.158,-0.864 c 0,-1.274 0.952,-2.325 2.184,-2.477 0.018,-0.099 0.03,-0.199 0.041,-0.304 -1.413,0.14 -2.517,1.338 -2.517,2.781 0,0.298 0.046,0.59 0.134,0.864"
                 style="fill:#2b7d99;fill-opacity:1;fill-rule:nonzero;stroke:none"
                 id="path582" /></g><g
               id="g584"
               transform="translate(263.7021,249.3828)"><path
                 d="m 0,0 c -6.456,0 -12.524,2.514 -17.089,7.078 -4.564,4.565 -7.078,10.633 -7.078,17.089 0,6.455 2.514,12.523 7.078,17.088 l 7.778,-7.778 c -5.133,-5.134 -5.133,-13.487 0,-18.621 C -6.824,12.369 -3.518,11 0,11 c 3.517,0 6.823,1.37 9.311,3.856 L 17.088,7.078 C 12.523,2.514 6.455,0 0,0"
                 style="fill:#ffa272;fill-opacity:1;fill-rule:nonzero;stroke:none"
                 id="path586" /></g><g
               id="g588"
               transform="translate(260.8105,248.8447)"><path
                 d="m 0,0 c 0.149,-0.367 0.14,-0.894 0.14,-0.894 0,0 1.666,0.393 2.369,0.754 0.703,0.361 0.896,0.493 1.515,1.133 0.619,0.64 1.142,1.312 0.482,2.314 C 3.973,4.117 2.716,3.594 2.305,3.047 1.895,2.501 1.452,1.385 0.967,1.115 0.481,0.845 -0.313,0.562 -0.313,0.562 -0.313,0.562 -0.142,0.349 0,0"
                 style="fill:#f8b7b0;fill-opacity:1;fill-rule:nonzero;stroke:none"
                 id="path590" /></g><g
               id="g592"
               transform="translate(246.458,244.2471)"><path
                 d="m 0,0 c 2.413,-0.931 5.396,-2.101 7.461,-1.552 2.135,0.569 7.121,4.465 7.98,5.246 0.111,0.101 0.166,0.247 0.156,0.397 -0.069,0.955 -0.669,1.61 -0.933,1.612 C 14.379,5.705 8.995,0.998 5.904,1.175 3.747,1.299 3.639,1.55 1.939,2.383 0.344,3.165 0.091,4.493 -1.476,3.343 -3.043,2.192 -2.282,0.881 0,0"
                 style="fill:#ff3c88;fill-opacity:1;fill-rule:nonzero;stroke:none"
                 id="path594" /></g><g
               id="g596"
               transform="translate(370.9141,329.2563)"><path
                 d="m 0,0 c -4.42,0 -8.016,-3.596 -8.016,-8.017 0,-4.42 3.596,-8.016 8.016,-8.016 4.42,0 8.017,3.596 8.017,8.016 C 8.017,-3.596 4.42,0 0,0 m 0,-25.033 c -9.383,0 -17.016,7.634 -17.016,17.016 C -17.016,1.366 -9.383,9 0,9 9.383,9 17.017,1.366 17.017,-8.017 17.017,-17.399 9.383,-25.033 0,-25.033"
                 style="fill:#ff3c88;fill-opacity:1;fill-rule:nonzero;stroke:none"
                 id="path598" /></g><g
               id="g600"><g
                 id="g602" /><g
                 id="g614"><g
                   clip-path="url(#clipPath606)"
                   opacity="0.300003"
                   id="g612"><g
                     transform="translate(340.1318,256.7603)"
                     id="g610"><path
                       d="m 0,0 h -38.912 c -2.356,0 -4.265,-1.91 -4.265,-4.265 v -22.442 c 0,-2.355 1.909,-4.265 4.265,-4.265 h 4.422 l 5.509,-7.367 c 1.176,-1.576 3.538,-1.576 4.715,0 l 5.509,7.367 H 0 c 2.355,0 4.266,1.91 4.266,4.265 V -4.265 C 4.266,-1.91 2.355,0 0,0"
                       style="fill:#cd4776;fill-opacity:1;fill-rule:nonzero;stroke:none"
                       id="path608" /></g></g></g></g><g
               id="g616"
               transform="translate(332.1318,249.7603)"><path
                 d="m 0,0 h -38.912 c -2.356,0 -4.265,-1.91 -4.265,-4.265 v -22.442 c 0,-2.355 1.909,-4.265 4.265,-4.265 h 4.422 l 5.509,-7.367 c 1.176,-1.576 3.538,-1.576 4.715,0 l 5.509,7.367 H 0 c 2.355,0 4.266,1.91 4.266,4.265 V -4.265 C 4.266,-1.91 2.355,0 0,0"
                 style="fill:#cd4776;fill-opacity:1;fill-rule:nonzero;stroke:none"
                 id="path618" /></g><g
               id="g620"
               transform="translate(326.5068,241.918)"><path
                 d="m 0,0 h -31.104 c -0.828,0 -1.5,0.672 -1.5,1.5 0,0.828 0.672,1.5 1.5,1.5 H 0 C 0.828,3 1.5,2.328 1.5,1.5 1.5,0.672 0.828,0 0,0"
                 style="fill:#b23062;fill-opacity:1;fill-rule:nonzero;stroke:none"
                 id="path622" /></g><g
               id="g624"
               transform="translate(326.5068,234.8389)"><path
                 d="m 0,0 h -31.104 c -0.828,0 -1.5,0.672 -1.5,1.5 0,0.828 0.672,1.5 1.5,1.5 H 0 C 0.828,3 1.5,2.328 1.5,1.5 1.5,0.672 0.828,0 0,0"
                 style="fill:#b23062;fill-opacity:1;fill-rule:nonzero;stroke:none"
                 id="path626" /></g><g
               id="g628"
               transform="translate(312.2158,227.7598)"><path
                 d="m 0,0 h -16.812 c -0.829,0 -1.5,0.672 -1.5,1.5 0,0.828 0.671,1.5 1.5,1.5 H 0 C 0.828,3 1.5,2.328 1.5,1.5 1.5,0.672 0.828,0 0,0"
                 style="fill:#b23062;fill-opacity:1;fill-rule:nonzero;stroke:none"
                 id="path630" /></g><g
               id="g632"><g
                 id="g634" /><g
                 id="g646"><g
                   clip-path="url(#clipPath638)"
                   opacity="0.300003"
                   id="g644"><g
                     transform="translate(365.501,265.1641)"
                     id="g642"><path
                       d="m 0,0 h 24.128 c 1.461,0 2.645,-1.184 2.645,-2.645 v -13.916 c 0,-1.46 -1.184,-2.644 -2.645,-2.644 h -2.741 l -3.416,-4.568 c -0.731,-0.977 -2.195,-0.977 -2.924,0 l -3.416,4.568 H 0 c -1.461,0 -2.646,1.184 -2.646,2.644 V -2.645 C -2.646,-1.184 -1.461,0 0,0"
                       style="fill:#48bfcc;fill-opacity:1;fill-rule:nonzero;stroke:none"
                       id="path640" /></g></g></g></g><g
               id="g648"
               transform="translate(361.4609,260.8237)"><path
                 d="m 0,0 h 24.129 c 1.46,0 2.644,-1.184 2.644,-2.645 V -16.56 c 0,-1.461 -1.184,-2.646 -2.644,-2.646 h -2.742 l -3.415,-4.568 c -0.731,-0.976 -2.195,-0.976 -2.925,0 l -3.416,4.568 H 0 c -1.461,0 -2.645,1.185 -2.645,2.646 V -2.645 C -2.645,-1.184 -1.461,0 0,0"
                 style="fill:#48bfcc;fill-opacity:1;fill-rule:nonzero;stroke:none"
                 id="path650" /></g><g
               id="g652"
               transform="translate(368.1943,251.2412)"><path
                 d="m 0,0 c 0,-1.188 -0.964,-2.151 -2.151,-2.151 -1.189,0 -2.152,0.963 -2.152,2.151 0,1.188 0.963,2.151 2.152,2.151 C -0.964,2.151 0,1.188 0,0"
                 style="fill:#f9f9fc;fill-opacity:1;fill-rule:nonzero;stroke:none"
                 id="path654" /></g><g
               id="g656"
               transform="translate(375.6768,251.2412)"><path
                 d="m 0,0 c 0,-1.188 -0.964,-2.151 -2.151,-2.151 -1.189,0 -2.152,0.963 -2.152,2.151 0,1.188 0.963,2.151 2.152,2.151 C -0.964,2.151 0,1.188 0,0"
                 style="fill:#f9f9fc;fill-opacity:1;fill-rule:nonzero;stroke:none"
                 id="path658" /></g><g
               id="g660"
               transform="translate(383.1592,251.2412)"><path
                 d="m 0,0 c 0,-1.188 -0.963,-2.151 -2.151,-2.151 -1.189,0 -2.152,0.963 -2.152,2.151 0,1.188 0.963,2.151 2.152,2.151 C -0.963,2.151 0,1.188 0,0"
                 style="fill:#f9f9fc;fill-opacity:1;fill-rule:nonzero;stroke:none"
                 id="path662" /></g></g></g></g></g></g></svg>
